<?xml version="1.0" encoding="UTF-8"?><svg id="_이어_2" xmlns="http://www.w3.org/2000/svg" viewBox="0 0 1671.26 365.34"><g id="_이어_1-2"><g><path d="M168.21,113.25c20.6,0,38.4,5.8,49,14.6v27.2c-13.6-13.6-29.6-21-49-21-32.4,0-50,22-50,51.4s21.6,49.6,49.8,49.6c20,0,34.6-6.6,50.2-22.6v27.8c-12,10-28.8,15.6-50.8,15.6-42.2,0-72.6-29-72.6-70.4,0-43.6,30-72.2,73.4-72.2Z"/><path d="M265.21,114.45v119.6h75v20.4h-98V114.45h23Z"/><path d="M382.01,254.44h-23V114.44h23V254.44Z"/><path d="M479.21,113.25c20.6,0,38.4,5.8,49,14.6v27.2c-13.6-13.6-29.6-21-49-21-32.4,0-50,22-50,51.4s21.6,49.6,49.8,49.6c20,0,34.6-6.6,50.2-22.6v27.8c-12,10-28.8,15.6-50.8,15.6-42.2,0-72.6-29-72.6-70.4,0-43.6,30-72.2,73.4-72.2Z"/><path d="M646.01,254.44l-47.2-66.6-22.6,21.6v45h-23V114.44h23v65.2l65.6-65.2h32.4l-59.2,57.4,58.8,82.6h-27.8Z"/><path d="M707.61,114.45h120.2v20.6h-49.2v119.4h-23v-119.4h-48v-20.6h0Z"/><path d="M828.21,183.85c0-39,28.6-70.6,71.4-70.6s71.4,32.6,71.4,70.6-28.2,72-71.4,72c-44-.01-71.4-34.2-71.4-72Zm23.4,0c0,28,19.2,51.2,48,51.2,32.6,0,48-26.6,48-51.2,0-27.2-17-49.8-48-49.8-32.8,0-48,25-48,49.8Z"/><path d="M1144.2,217.45c0,27.2-25.6,38.8-51.2,38.8s-46.6-9-60.4-18.4v-27.8c19.4,17.8,38.2,25.4,60.4,25.4,18.8,0,27.8-7,27.8-18s-9.6-15.2-27.6-21l-27-8.6c-20.6-6.6-38.2-16-38.2-37.2,0-26.8,28.6-37.4,56.2-37.4,25.8,0,43.4,6.6,54.2,12.6v26.4c-12.6-10.8-31.6-18.2-54.2-18.2-23.8,0-32.8,7.4-32.8,16.6s7.2,13.8,22,17.8l24.6,7.4c28,8.8,46.2,16.8,46.2,41.6Z"/><path d="M1189.6,172.85h73.8v20.8h-73.8v40.4h79v20.4h-102V114.45h100.6v20.6h-77.6v37.8Z"/><path d="M1318,114.45l70.2,103.8V114.45h22.6V254.45h-24.6l-70.2-103.4v103.4h-22.6V114.45h24.6Z"/><path d="M1442.8,114.45h52c44.2,0,74,24.2,74,70,0,40-26.4,70-72.2,70h-53.8V114.45Zm23,119.59h33.4c30.2,0,46.2-19.4,46.2-49.6s-16.2-49.4-48.8-49.4h-30.8v99h0Z"/></g><path d="M1566.79,365.34H104.47C46.86,365.34,0,318.47,0,260.87V104.47C0,46.86,46.87,0,104.47,0H1566.79c57.61,0,104.47,46.87,104.47,104.47v156.39c0,57.61-46.86,104.48-104.47,104.48ZM104.47,20c-46.58,0-84.47,37.89-84.47,84.47v156.39c0,46.58,37.89,84.47,84.47,84.47H1566.79c46.58,0,84.47-37.89,84.47-84.47V104.47c0-46.58-37.89-84.47-84.47-84.47H104.47Z"/></g></svg>