<?xml version="1.0" encoding="UTF-8"?><svg id="_이어_2" xmlns="http://www.w3.org/2000/svg" viewBox="0 0 1671.26 365.34"><g id="_이어_1-2"><g><path d="M1566.79,0H104.47C46.87,0,0,46.87,0,104.48v156.38c0,57.61,46.87,104.48,104.47,104.48H1566.79c57.61,0,104.47-46.87,104.47-104.48V104.48c0-57.61-46.86-104.48-104.47-104.48ZM218.21,240.25c-12,10-28.8,15.6-50.8,15.6-42.2,0-72.6-29-72.6-70.4,0-43.6,30-72.2,73.4-72.2,20.6,0,38.4,5.8,49,14.6v27.2c-13.6-13.6-29.6-21-49-21-32.4,0-50,22-50,51.4s21.6,49.6,49.8,49.6c20,0,34.6-6.6,50.2-22.6v27.8Zm122,14.19h-98V114.44h23v119.6h75v20.4Zm41.8,0h-23V114.44h23V254.44Zm147.2-14.19c-12,10-28.8,15.6-50.8,15.6-42.2,0-72.6-29-72.6-70.4,0-43.6,30-72.2,73.4-72.2,20.6,0,38.4,5.8,49,14.6v27.2c-13.6-13.6-29.6-21-49-21-32.4,0-50,22-50,51.4s21.6,49.6,49.8,49.6c20,0,34.6-6.6,50.2-22.6v27.8h0Zm144.6,14.19h-27.8l-47.2-66.6-22.6,21.6v45h-23V114.44h23v65.2l65.6-65.2h32.4l-59.2,57.4,58.8,82.6Zm154-119.39h-49.2v119.4h-23v-119.4h-48v-20.6h120.2v20.6Zm71.8,120.79c-44,0-71.4-34.2-71.4-72s28.6-70.6,71.4-70.6,71.4,32.6,71.4,70.6c0,39.01-28.2,72-71.4,72Zm193.39,.4c-26.8,0-46.6-9-60.4-18.4v-27.8c19.4,17.8,38.2,25.4,60.4,25.4,18.8,0,27.8-7,27.8-18s-9.6-15.2-27.6-21l-27-8.6c-20.6-6.6-38.2-16-38.2-37.2,0-26.8,28.6-37.4,56.2-37.4,25.8,0,43.4,6.6,54.2,12.6v26.4c-12.6-10.8-31.6-18.2-54.2-18.2-23.8,0-32.8,7.4-32.8,16.6s7.2,13.8,22,17.8l24.6,7.4c28,8.8,46.2,16.8,46.2,41.6,0,27.21-25.6,38.8-51.2,38.8Zm175.6-1.8h-102V114.44h100.6v20.6h-77.6v37.8h73.8v20.8h-73.8v40.4h79v20.4Zm142.2,0h-24.6l-70.2-103.4v103.4h-22.6V114.44h24.6l70.2,103.8V114.44h22.6V254.44Zm85.8,0h-53.8V114.44h52c44.2,0,74,24.2,74,70,0,40.01-26.4,70-72.2,70Z"/><path d="M1496.6,135.05h-30.8v99h33.4c30.2,0,46.2-19.4,46.2-49.6s-16.2-49.4-48.8-49.4Z"/><path d="M899.61,134.05c-32.8,0-48,25-48,49.8,0,28,19.2,51.2,48,51.2,32.6,0,48-26.6,48-51.2,0-27.2-17-49.8-48-49.8Z"/></g></g></svg>