<?xml version="1.0" encoding="UTF-8"?><svg id="_이어_2" xmlns="http://www.w3.org/2000/svg" viewBox="0 0 1913.24 207.26"><defs><style>.cls-1{fill:#231815;}</style></defs><g id="_이어_1-2"><g><g><path d="M71.19,183.64H0v-2.36H23.34V7.31H0v-2.36H71.19v2.36h-23.34V181.28h23.34v2.36Z"/><path d="M112.91,0c2.83,0,5.66,.59,8.49,1.77,2.83,1.18,5.34,2.87,7.54,5.07,2.2,2.2,3.97,4.87,5.3,8.02,1.33,3.15,2,6.68,2,10.61,0,8.02-3.1,15.99-9.31,23.93-6.21,7.94-15.83,15.83-28.88,23.69l-.94-1.89c7.86-5.34,13.47-10.65,16.85-15.91,3.38-5.26,5.07-10.17,5.07-14.73,0-5.66-2-10.73-6.01-15.2-4.01-4.48-9.94-7.66-17.8-9.55,0-5.03,1.69-8.92,5.07-11.67,3.38-2.75,7.58-4.13,12.61-4.13Z"/><path d="M199.67,183.64h-57.99v-2.36h18.39V89.34l-18.39-9.9v-.94l39.6-14.62v27.82c2.67-9.43,7.23-16.54,13.67-21.33,6.44-4.79,14.3-7.19,23.57-7.19,4.24,0,8.29,.55,12.14,1.65,3.85,1.1,7.31,2.87,10.37,5.3,3.06,2.44,5.69,5.66,7.9,9.67,2.2,4.01,3.77,8.84,4.71,14.5,2.51-10.84,7.23-18.74,14.14-23.69,6.91-4.95,14.93-7.43,24.04-7.43,5.03,0,9.74,.75,14.14,2.24,4.4,1.5,8.21,3.97,11.43,7.43,3.22,3.46,5.78,7.98,7.66,13.55,1.89,5.58,2.83,12.46,2.83,20.63v74.26h18.39v2.36h-57.99v-2.36h18.39V108.91c0-6.6-.63-12.18-1.89-16.74-1.26-4.56-3.03-8.29-5.3-11.2-2.28-2.91-4.95-4.99-8.02-6.25-3.06-1.26-6.41-1.89-10.02-1.89-8.49,0-15.09,2.87-19.8,8.6-4.71,5.74-7.07,14.89-7.07,27.46v72.37h18.39v2.36h-57.99v-2.36h18.39V108.91c0-6.6-.63-12.18-1.89-16.74-1.26-4.56-3.03-8.29-5.3-11.2-2.28-2.91-4.95-4.99-8.02-6.25-3.06-1.26-6.41-1.89-10.02-1.89-8.49,0-15.09,2.87-19.8,8.6-4.71,5.74-7.07,14.89-7.07,27.46v72.37h18.39v2.36Z"/><path d="M349.59,202.5h175.37v4.77h-175.37v-4.77Z"/><path d="M524.96,202.5h175.37v4.77h-175.37v-4.77Z"/><path d="M700.32,202.5h175.37v4.77h-175.37v-4.77Z"/><path d="M875.69,202.5h175.37v4.77h-175.37v-4.77Z"/><path d="M935.62,185.08c-1.53,0-2.98-.24-4.34-.72s-2.56-1.14-3.59-1.97c-1.03-.84-1.85-1.84-2.48-3.01-.62-1.17-.93-2.45-.93-3.84s.29-2.61,.86-3.52c.57-.91,1.41-1.72,2.51-2.44,1.1-.72,2.43-1.41,3.98-2.08,1.55-.67,3.34-1.44,5.35-2.3,2.34-1.05,4.28-2.08,5.81-3.09,1-.72,1.76-1.49,2.26-2.33,.5-.84,.75-1.83,.75-2.98,0-1.44-.2-2.67-.61-3.7-.41-1.03-.96-1.88-1.65-2.55-.69-.67-1.48-1.16-2.37-1.47-.89-.31-1.78-.47-2.69-.47-2.54,0-4.47,.95-5.81,2.84-1.34,1.89-1.77,4.92-1.29,9.08-.86,.29-1.7,.43-2.51,.43-1.29,0-2.43-.27-3.41-.83-.98-.55-1.47-1.28-1.47-2.19,0-1.1,.44-2.05,1.33-2.83,.88-.79,1.95-1.64,3.19-2.55,2.01-1.44,4.07-2.67,6.17-3.7,2.1-1.03,4.47-1.54,7.11-1.54,1.29,0,2.56,.13,3.8,.39,1.24,.26,2.36,.79,3.34,1.58,.98,.79,1.77,1.88,2.37,3.27,.6,1.39,.9,3.21,.9,5.45l-.07,25.41h5.6v.72h-11.99v-6.96c-.81,2.34-2.02,4.25-3.62,5.71-1.6,1.46-3.77,2.19-6.49,2.19Zm3.23-2.8c.81,0,1.61-.19,2.4-.57,.79-.38,1.51-.92,2.15-1.61,.65-.69,1.18-1.55,1.61-2.58,.43-1.03,.65-2.19,.65-3.48l.14-13.56c-.91,.91-2.01,1.79-3.3,2.66-1.15,.77-2.34,1.52-3.59,2.26-1.24,.74-2.39,1.56-3.44,2.44-1.05,.89-1.91,1.87-2.58,2.94-.67,1.08-1,2.29-1,3.62,0,1.24,.19,2.35,.57,3.3,.38,.96,.9,1.78,1.54,2.48,.65,.69,1.39,1.22,2.22,1.58,.84,.36,1.71,.54,2.62,.54Z"/><path d="M961.09,183.43h5.6v-27.99l-5.6-3.01v-.29l12.06-4.45v8.47c.81-2.87,2.2-5.03,4.16-6.49,1.96-1.46,4.35-2.19,7.18-2.19,1.53,0,2.97,.23,4.31,.68,1.34,.46,2.5,1.21,3.48,2.26,.98,1.05,1.76,2.43,2.33,4.13,.57,1.7,.86,3.79,.86,6.28v22.61h5.6v.72h-17.65v-.72h5.6v-22.03c0-2.01-.19-3.71-.57-5.1-.38-1.39-.92-2.52-1.61-3.41-.69-.88-1.51-1.52-2.44-1.9-.93-.38-1.95-.57-3.05-.57-2.58,0-4.59,.87-6.03,2.62-1.44,1.75-2.15,4.53-2.15,8.36v22.03h5.6v.72h-17.66v-.72Z"/><path d="M1021.45,185.08c-1.91,0-3.83-.39-5.74-1.18-1.91-.79-3.65-1.97-5.2-3.55-1.56-1.58-2.81-3.54-3.77-5.89-.96-2.34-1.44-5.05-1.44-8.11,0-2.87,.48-5.47,1.44-7.79,.96-2.32,2.24-4.31,3.84-5.96,1.6-1.65,3.43-2.92,5.49-3.8,2.06-.88,4.16-1.33,6.32-1.33s4.28,.5,6.1,1.51c1.82,1,3.2,2.3,4.16,3.88v-22.39h-7.03v-.72h13.49v53.68h5.6v.72h-12.06v-5.6c-1.15,1.96-2.66,3.54-4.52,4.74-1.87,1.2-4.09,1.79-6.67,1.79Zm3.59-3.09c1.39,0,2.83-.41,4.34-1.22,1.51-.81,2.6-1.91,3.27-3.3v-23.54c-.62-1.24-1.66-2.21-3.12-2.91-1.46-.69-3.1-1.04-4.92-1.04-1.44,0-2.85,.32-4.23,.97-1.39,.65-2.63,1.61-3.73,2.91-1.1,1.29-2,2.92-2.69,4.88-.69,1.96-1.04,4.23-1.04,6.82,0,2.44,.31,4.68,.93,6.71,.62,2.03,1.47,3.77,2.55,5.2,1.08,1.44,2.36,2.55,3.84,3.34,1.48,.79,3.09,1.18,4.81,1.18Z"/><path d="M1192.27,183.64h-71.19v-2.36h23.34V7.31h-23.34v-2.36h71.19v2.36h-23.34V181.28h23.34v2.36Z"/><path d="M1305.42,186.7c-6.92,0-12.14-2-15.68-6.01-3.54-4.01-5.3-9.47-5.3-16.38,0-7.54,1.73-15.12,5.19-22.75,3.46-7.62,7.82-14.93,13.08-21.92,5.26-6.99,10.96-13.47,17.09-19.45,6.13-5.97,11.86-11,17.21-15.09h-49.74l-14.14,24.04h-2.36l23.81-43.85h60.58c-5.19,6.13-10.69,12.61-16.5,19.45-5.82,6.84-11.24,13.79-16.27,20.86-5.03,7.07-9.19,14.07-12.49,20.98-3.3,6.92-4.95,13.52-4.95,19.8,0,3.77,.55,6.95,1.65,9.55,1.1,2.59,2.48,4.64,4.13,6.13,1.65,1.5,3.54,2.59,5.66,3.3,2.12,.71,4.2,1.06,6.25,1.06,4.08,0,8.13-.63,12.14-1.89,4.01-1.26,8.05-3.3,12.14-6.13-.32-2.2-.59-4.52-.82-6.95-.24-2.44-.35-4.91-.35-7.43,0-9.43,1.49-18.98,4.48-28.64,2.98-9.67,6.8-18.35,11.43-26.05,4.63-7.7,9.67-13.99,15.09-18.86,5.42-4.87,10.49-7.31,15.21-7.31,4.08,0,7.11,1.26,9.08,3.77,1.96,2.52,2.95,6.05,2.95,10.61,0,6.92-2.52,15.56-7.54,25.93-5.03,10.37-12.89,21.77-23.57,34.18l-12.49,14.14c2.67,4.4,6.13,7.94,10.37,10.61,4.24,2.67,9.11,4.01,14.62,4.01s10.73-1.3,16.15-3.89c5.42-2.59,10.61-6.48,15.56-11.67,4.95-5.19,9.51-11.71,13.67-19.57,4.16-7.86,7.58-16.97,10.25-27.35l-22.63-29c.78-4.08,2.51-7.07,5.19-8.96,2.67-1.89,5.34-2.83,8.02-2.83,3.61,0,6.91,1.57,9.9,4.71,2.98,3.15,4.48,7.94,4.48,14.38,0,4.87-.67,10.81-2,17.8-1.34,6.99-3.34,14.38-6.01,22.16-2.67,7.78-5.93,15.52-9.78,23.22-3.85,7.7-8.29,14.58-13.32,20.63-5.03,6.05-10.69,11-16.97,14.85-6.29,3.85-13.05,5.78-20.27,5.78-8.02,0-14.38-2.12-19.09-6.36s-8.1-9.74-10.14-16.5c-7.07,6.6-14.23,12.06-21.45,16.38-7.23,4.32-14.38,6.48-21.45,6.48Zm47.85-61.76c0,9.12,1.8,17.13,5.42,24.04,4.24-3.77,8.64-8.41,13.2-13.91,8.8-10.37,14.93-19.17,18.39-26.4,3.46-7.23,5.19-12.65,5.19-16.27,0-3.93-1.02-6.87-3.06-8.84-2.04-1.96-4.87-2.95-8.49-2.95s-7.23,.98-10.84,2.95c-3.62,1.97-6.88,4.83-9.78,8.6-2.91,3.77-5.3,8.41-7.19,13.91-1.89,5.5-2.83,11.79-2.83,18.86Z"/><path d="M1488.82,186.7c-4.4,0-8.49-.71-12.26-2.12-3.77-1.41-7.04-3.54-9.78-6.36-2.75-2.83-4.91-6.48-6.48-10.96-1.57-4.48-2.36-9.78-2.36-15.91,0-7.86,1.22-15.52,3.65-22.98,2.43-7.46,5.62-14.46,9.55-20.98,3.93-6.52,8.52-12.49,13.79-17.92,5.26-5.42,10.73-10.1,16.38-14.03,5.66-3.93,11.32-6.95,16.97-9.08,5.66-2.12,11-3.18,16.03-3.18,6.76,0,12.3,1.89,16.62,5.66,4.32,3.77,6.48,8.41,6.48,13.91,0,9.12-4.71,16.74-14.14,22.87l-53.75,1.89c-2.36,5.5-4.21,11.32-5.54,17.44-1.34,6.13-2,12.42-2,18.86,0,10.53,1.69,19.14,5.07,25.81,3.38,6.68,8.45,10.02,15.21,10.02s13.83-3.3,20.27-9.9c6.44-6.6,12.18-15.64,17.21-27.11l2.36,.94c-5.5,13.36-12.57,23.89-21.22,31.59-8.65,7.7-19.33,11.55-32.06,11.55Zm45.5-121.4c-3.93,0-7.94,.98-12.02,2.95-4.09,1.97-8.06,4.71-11.9,8.25-3.85,3.54-7.51,7.7-10.96,12.49-3.46,4.8-6.45,10.1-8.96,15.91l14.62-.47c6.44-.15,12.18-1.3,17.21-3.42,5.03-2.12,9.23-4.67,12.61-7.66,3.38-2.98,5.97-6.13,7.78-9.43,1.81-3.3,2.71-6.36,2.71-9.19,0-3.14-1.02-5.5-3.06-7.07-2.04-1.57-4.71-2.36-8.02-2.36Z"/><path d="M1578.16,186.7c-6.6,0-11.51-2.08-14.73-6.25-3.22-4.16-4.83-9.7-4.83-16.62s1.18-13.95,3.54-21.57c2.36-7.62,5.54-15.16,9.55-22.63,4.01-7.46,8.68-14.58,14.03-21.33,5.34-6.76,10.96-12.77,16.85-18.03,5.89-5.26,11.86-9.43,17.92-12.49,6.05-3.06,11.82-4.6,17.33-4.6,5.03,0,8.84,1.93,11.43,5.78,2.59,3.85,3.42,8.92,2.48,15.21h.24l8.25-21.69h19.8l-37.25,99.72c-2.2,5.97-3.58,10.53-4.13,13.67-.55,3.15,.27,4.71,2.48,4.71,3.46,0,8.25-2.83,14.38-8.49,6.13-5.66,12.41-13.91,18.86-24.75l2.36,1.41c-7.86,13.05-15.56,22.63-23.1,28.76-7.54,6.13-16.03,9.19-25.46,9.19-3.3,0-5.7-.59-7.19-1.77-1.5-1.18-2.32-2.95-2.48-5.3-.16-2.36,.27-5.19,1.3-8.49,1.02-3.3,2.39-7.07,4.12-11.31l11.08-27.82h-.47c-4.24,7.39-8.53,14.38-12.85,20.98-4.32,6.6-8.8,12.38-13.44,17.33-4.64,4.95-9.43,8.92-14.38,11.9-4.95,2.98-10.18,4.48-15.68,4.48Zm13.44-7.78c2.51,0,5.69-1.73,9.55-5.19,3.85-3.46,7.93-7.97,12.26-13.55,4.32-5.58,8.6-11.9,12.85-18.98,4.24-7.07,8.09-14.22,11.55-21.45,3.46-7.23,6.25-14.26,8.37-21.1s3.18-12.77,3.18-17.8-1.02-8.8-3.06-11.32c-2.04-2.51-4.8-3.77-8.25-3.77-4.71,0-9.31,1.41-13.79,4.24-4.48,2.83-8.69,6.68-12.61,11.55-3.93,4.87-7.58,10.45-10.96,16.74-3.38,6.29-6.29,12.89-8.72,19.8-2.44,6.92-4.32,13.95-5.66,21.1-1.34,7.15-2,13.87-2,20.16,0,7.23,.67,12.3,2,15.21,1.33,2.91,3.1,4.36,5.3,4.36Z"/><path d="M1721.25,88.64l-18.39-10.61,.47-.94,48.8-13.91-37.72,89.11h.71c2.04-4.4,4.4-9.39,7.07-14.97,2.67-5.58,5.42-11.12,8.25-16.62,2.83-5.5,5.5-10.61,8.02-15.32,2.51-4.71,4.63-8.49,6.36-11.32,3.61-5.97,6.84-10.92,9.67-14.85,2.83-3.93,5.5-7.03,8.02-9.31,2.51-2.28,4.95-3.89,7.31-4.83,2.36-.94,4.87-1.41,7.54-1.41,4.08,0,7.31,1.18,9.67,3.54s3.54,5.19,3.54,8.49c0,4.56-1.53,8.57-4.6,12.02-3.06,3.46-6.88,5.19-11.43,5.19l-10.14-20.98c-3.62,3.3-7.9,8.8-12.85,16.5-4.95,7.7-10.25,16.97-15.91,27.82-4.71,9.27-9.63,19.33-14.73,30.17-5.11,10.84-9.86,22.55-14.26,35.12l-23.34,4.48,37.95-97.36Z"/></g><g><rect class="cls-1" x="1891.64" y="137.75" width="4.71" height="43.38"/><polygon class="cls-1" points="1874.74 165.53 1878.19 162.32 1893.99 179.32 1909.8 162.32 1913.24 165.53 1893.99 186.23 1874.74 165.53"/></g></g></g></svg>